PathFileType	4	(X/Y/Z)	C:/Users/beibeiliu/ov580/test_trc/User1\sequence.2_training_dense_left.trc
DataRate	CameraRate	NumFrames	NumMarkers	Units	OrigDataRate	OrigDataStartFrame	OrigNumFrames
120	120	18	19	mm	120	59	145
Frame#	Time	ThumbCMC			ThumbMCP			ThumbIP			ThumbTip			IndexMCP			IndexPIP			IndexTip			MiddleMCP			MiddlePIP			MiddleTip			RingMCP			RingPIP			RingTip			PinkyMCP			PinkyPIP			PinkyTip			BackHand1			BackHand2			BackHand3	
		X0	Y0	Z0	X1	Y1	Z1	X2	Y2	Z2	X3	Y3	Z3	X4	Y4	Z4	X5	Y5	Z5	X6	Y6	Z6	X7	Y7	Z7	X8	Y8	Z8	X9	Y9	Z9	X10	Y10	Z10	X11	Y11	Z11	X12	Y12	Z12	X13	Y13	Z13	X14	Y14	Z14	X15	Y15	Z15	X16	Y16	Z16	X17	Y17	Z17	X18	Y18	Z18	
58	0.483333	-156.502	83.8174	94.3403	-127.422	72.4943	73.3866	-112.015	64.0672	51.6643	-101.135	46.4743	30.7252	-156.46	72.3753	8.42577	-132.572	55.2362	-6.11129	-103.701	43.0157	14.3856	-167.16	49.6028	0.605638	-132.719	34.5314	-8.81299	-108.499	25.6362	18.5522	-173.885	30.0647	6.78504	-141.358	15.2927	-1.16365	-121.279	10.773	19.2608	-180.19	8.81266	23.5949	-153.431	3.069	15.741	-124.436	5.55797	32.3904	-204.742	46.3648	55.1868	-217.275	46.887	90.825	-197.096	76.462	73.0454	
59	0.491667	-174.168	92.3957	85.2357	-141.657	93.0495	65.18	-122.571	86.2302	45.0647	-104.944	69.1884	30.8656	-157.689	61.7573	0.576978	-126.804	58.8347	-8.43793	-103.547	60.9884	10.7989	-156.99	33.5908	0.124209	-125.011	35.6479	-8.44804	-97.8829	42.3251	18.9104	-153.368	16.097	11.9869	-119.411	19.9953	6.48447	-97.5438	28.4294	30.2666	-153.846	0.835121	38.035	-122.375	5.15869	28.6145	-104.744	22.8295	38.3148	-195.287	22.5373	63.6451	-209.214	28.2276	92.2793	-203.596	64.0583	67.047	
60	0.5	-192.397	86.5072	74.9127	-164.258	96.5791	53.1929	-140.745	94.4659	29.4309	-120.384	83.8414	21.336	-165.916	47.4275	2.4392	-134.72	51.2769	-11.7013	-110.243	72.7964	6.88227	-154.576	24.9565	1.596	-124.016	32.123	-9.19188	-99.2499	60.4171	9.13903	-142.06	9.15288	18.9014	-110.379	20.5245	9.19476	-95.436	43.3451	22.3316	-135.164	2.59639	45.2347	-109.466	10.8282	33.8757	-93.7693	36.8758	33.3581	-181.609	13.1434	65.2103	-198.167	20.251	98.981	-202.477	42.0493	68.2237	
61	0.508333	-200.346	82.4679	71.2759	-175.828	97.0967	47.6962	-156.446	97.6656	25.5603	-131.87	90.5187	9.93439	-174.394	40.5306	1.06184	-145.05	49.7442	-16.0849	-126.031	75.443	-4.25986	-160.184	20.1641	-0.218549	-130.612	32.6213	-13.7699	-110.943	61.0956	0.592074	-144.749	6.19141	20.0662	-118.347	21.7878	2.52882	-100.412	46.3006	15.885	-132.151	1.07683	43.7503	-112.037	14.6147	28.0687	-102.666	41.7068	24.5546	-179.852	9.22734	67.3209	-193.989	16.846	98.5319	-210.838	39.785	69.3305	
62	0.516667	-200.296	87.046	76.1249	-176.292	98.0439	46.8329	-161.401	97.7859	26.9185	-140.78	89.0131	6.00512	-187.355	47.9817	-3.01239	-161.641	53.806	-20.0112	-134.716	75.0871	-5.56417	-178.719	25.7547	-2.06539	-149.412	38.1645	-21.4535	-122.695	57.5968	-5.79005	-162.453	9.70172	11.2031	-138.872	22.0166	-7.61393	-114.49	44.4181	4.83935	-150.093	1.97085	35.5933	-129.006	11.7348	18.0693	-112.511	37.9595	12.4964	-194.99	15.1381	69.166	-202.033	22.3538	98.5393	-215.251	45.5854	71.6438	
63	0.525	-189.141	94.2149	83.193	-165.549	102.636	55.1465	-154.052	99.9485	30.1781	-139.585	88.5817	7.878	-197.534	69.8448	0.738536	-169.856	69.3714	-19.3073	-139.181	79.0652	-8.20607	-196.204	44.7762	-5.198	-169.599	49.9029	-24.4509	-135.355	61.9995	-10.263	-189.514	25.6608	7.2059	-161.574	31.9798	-15.3688	-132.64	39.548	-5.16438	-179.507	11.3908	26.8481	-157.205	13.7469	6.30722	-134.527	36.6042	2.75124	-209.9	30.3046	65.1873	-213.114	27.4263	99.9001	-220.357	63.9289	74.2155	
64	0.533333	-172.196	93.5715	90.5156	-144.981	96.8357	65.2165	-136.678	97.0055	32.0956	-131.868	83.3985	11.7635	-192.669	96.5837	6.77664	-168.277	89.0853	-15.1826	-140.171	82.2436	-8.12917	-205.041	79.3037	-0.885548	-177.361	71.5079	-23.9603	-143.06	61.4741	-12.4298	-207.879	52.3792	2.51724	-182.693	50.3173	-19.566	-150.59	44.6548	-11.9134	-203.133	33.4224	19.2692	-184.206	30.9979	-2.64821	-155.249	33.799	-6.96154	-221.186	51.7579	65.572	-220.195	46.3784	98.6772	-210.071	83.9723	83.3751	
65	0.541667	-156.254	83.6463	95.3182	-133.07	81.5648	63.4672	-125.128	78.773	40.3583	-124.304	72.0386	12.3806	-176.19	112.853	20.5962	-159.167	98.0088	-8.3063	-135.255	73.2457	-4.59425	-195.784	102.069	6.80922	-177.663	86.358	-20.1446	-153.869	61.0345	-16.5993	-207.346	80.5786	7.00583	-188.216	68.5923	-18.5618	-165.458	47.4038	-16.4733	-214.375	54.3574	16.089	-201.196	44.5219	-4.68101	-170.339	43.7036	-10.6162	-219.98	70.7872	71.1808	-224.724	61.6942	99.1046	-199.336	91.3447	91.549	
66	0.55	-146.543	69.6669	96.8415	-124.215	62.2969	68.5259	-118.169	61.6507	39.4559	-117.145	54.9325	11.5222	-158.789	108.762	25.2511	-147.07	94.3563	-5.19396	-132.436	62.6021	-2.73828	-184.797	103.583	9.64064	-169.031	92.3925	-16.6664	-151.793	54.3478	-15.2868	-202.037	86.1063	9.43584	-189.526	71.7624	-18.4783	-170.426	48.8322	-18.6489	-218.035	61.5292	21.0743	-204.191	53.0949	-2.81357	-180.451	37.5617	-12.9292	-213.688	78.1153	74.202	-218.543	65.6964	100.839	-186.788	89.5752	95.3743	
67	0.558333	-141.39	62.8748	100.077	-120.353	49.8322	73.3637	-109.478	47.6981	44.4747	-113.202	39.0953	17.5763	-151.592	93.4361	23.121	-137.542	78.4985	-3.16299	-123.68	47.5189	0.429486	-175.093	87.9796	9.85561	-158.671	70.9602	-16.953	-144.411	37.8105	-11.5832	-193.048	73.8354	9.59203	-176.414	55.8677	-16.7008	-159.589	30.9999	-12.2557	-208.543	50.3343	17.2434	-193.829	38.2741	-3.32099	-166.755	23.0181	-4.44032	-208.9	71.5705	72.0432	-212.572	62.0736	99.8452	-180.67	82.9531	93.3715	
68	0.566667	-142.461	70.6175	103.804	-114.304	57.5145	81.5699	-105.001	49.8113	57.6066	-96.3542	34.8412	33.1088	-146.639	76.1105	16.9909	-125.918	55.7304	-2.45903	-108.767	32.7942	11.2248	-167.24	60.8747	5.76244	-145.24	42.3824	-12.2647	-119.222	20.2808	3.70194	-179.854	45.9389	11.1936	-157.184	27.6047	-9.56709	-137.487	7.01533	1.85575	-192.558	21.7099	23.4797	-169.552	13.91	6.3094	-141.293	6.74652	12.495	-202.263	53.2782	65.1031	-213.733	50.7817	97.3644	-183.948	75.9313	85.5716	
69	0.575	-160.18	82.344	93.3458	-125.42	81.1182	73.3386	-107.009	73.7537	53.2282	-90.1229	57.0295	39.0531	-147.836	62.2642	8.59412	-118.346	47.2837	-0.824798	-93.5272	42.9328	18.1758	-153.586	33.3814	2.98738	-124.117	24.8112	-5.41012	-93.645	25.89	20.9644	-160.432	13.8524	14.492	-131.114	5.86192	1.50096	-103.928	8.56026	19.8047	-163.549	-2.84193	33.2975	-138.201	-2.44634	20.2043	-110.877	3.57282	26.6787	-196.443	27.884	65.853	-208.53	31.0309	97.4039	-193.255	63.3923	74.4601	
70	0.583333	-178.364	82.8482	78.1713	-147.413	88.052	60.6558	-124.225	86.4087	40.5774	-101.427	73.8787	29.1095	-151.989	45.6218	2.41088	-123.135	44.4379	-7.5201	-93.837	57.2248	15.3435	-146.111	21.0949	5.74749	-112.618	22.2298	-1.77565	-89.8264	44.0118	19.0965	-142.432	-0.300977	22.0754	-108.009	7.41277	9.61972	-85.943	24.0682	28.6341	-137.333	-12.0536	44.4746	-113.955	-9.07425	32.5718	-93.0821	18.4786	33.8803	-182.146	8.342	67.0514	-198.325	19.6261	96.6641	-197.656	44.5264	68.4937	
71	0.591667	-191.313	73.4401	68.1927	-165.754	89.6539	51.0452	-144.242	85.2854	29.7162	-117.965	80.5693	16.6724	-158.58	31.7963	1.8519	-129.517	40.9621	-10.8276	-108.53	63.1859	5.81392	-149.238	11.6556	5.15414	-118.759	24.7554	-7.41233	-98.6761	53.296	13.7843	-137.192	-1.79948	20.5429	-110.66	6.22245	8.22682	-89.3655	34.0026	21.6913	-131.823	-10.072	51.3649	-108.572	-2.61099	32.5322	-93.0351	25.5651	25.9256	-176.243	1.59137	68.8646	-192.801	9.30982	99.0816	-202.258	33.4876	65.5002	
72	0.6	-200.122	74.6753	71.7309	-175.215	87.3492	47.2233	-157.611	88.4424	22.5716	-134.494	78.5911	8.54087	-174.254	31.0398	-2.35117	-146.285	37.8788	-16.5343	-125.582	61.3156	-6.2074	-160.245	9.80864	-0.125899	-130.186	24.3708	-11.9678	-112.65	50.4943	5.17039	-149.283	-3.18289	15.9987	-122.531	9.75984	-1.48693	-104.266	36.4011	8.90354	-142.738	-7.95627	42.1721	-120.05	-3.66801	24.065	-102.42	22.6363	15.8181	-184.758	-0.306897	70.4037	-198.67	9.90554	101.5	-209.19	30.409	69.7287	
73	0.608333	-196.715	82.8685	77.77	-172.203	89.0509	48.8274	-155.891	87.9219	22.0596	-136.737	81.5798	6.41063	-191.762	50.2771	-2.88338	-163.285	52.7186	-22.0414	-132.604	64.5542	-7.50326	-184.932	27.6078	-5.31159	-154.905	31.7372	-20.4121	-124.753	51.0705	1.20019	-177.361	9.10991	7.15391	-146.599	17.6264	-11.6089	-120.886	33.2571	2.11134	-165.681	-3.80136	26.5969	-143.614	-0.554671	10.3262	-125.141	26.5395	8.03927	-203.584	13.5124	61.2935	-208.581	13.9662	94.4434	-217.895	45.0367	68.8768	
74	0.616667	-175.841	88.2887	87.2809	-148.117	92.0347	58.7549	-139.009	85.672	28.8389	-127.092	75.3523	8.95953	-190.39	83.7896	3.41233	-167.106	74.3578	-18.0019	-134.641	69.2586	-9.06574	-197.647	63.2043	-7.22868	-169.451	55.0719	-22.9364	-136.513	51.5412	-5.65853	-201.459	42.7966	2.58582	-170.953	34.311	-20.088	-145.831	31.5483	-7.84537	-198.313	17.2821	16.6839	-179.104	18.2344	-0.229037	-147.837	27.0777	1.27137	-219.215	38.7033	62.3599	-223.16	41.9708	95.1712	-213.354	75.4579	77.5838	
75	0.625	-151.304	76.1053	94.3383	-130.251	66.9505	64.1104	-121.469	64.9693	37.3537	-119.294	52.8709	11.9297	-171.777	97.7461	13.8127	-153.809	80.8341	-11.3498	-130.76	59.658	-5.03087	-187.57	87.5546	2.68586	-168.479	68.308	-19.8435	-143.467	40.6805	-3.29969	-203.632	66.7602	4.1072	-181.239	54.8167	-18.967	-158.923	28.4259	-8.69074	-211.619	44.3336	18.1027	-196.529	33.7908	-4.00643	-164.076	27.3246	-2.56715	-215.751	68.2105	63.2965	-219.089	58.9505	101.325	-195.489	84.593	89.9007	
